<?xml version="1.0" encoding="UTF-8"?> <svg xmlns="http://www.w3.org/2000/svg" id="Layer_1" data-name="Layer 1" viewBox="0 0 837.06 742.14"><defs><style> .cls-1 { fill: #f08d2e; } .cls-2 { fill: #1ba89d; } .cls-3 { fill: #191b1a; } </style></defs><g id="House_shape" data-name="House shape"><path id="chimney" class="cls-3" d="M255.24,65.89c-1.09-26.16-24.26-50.69-49.6-52.6-20.17-1.36-40.88-1.36-61.32,0-25.35,1.91-48.51,26.44-49.6,52.6-1.91,52.33-1.91,105.2,0,157.26,1.09,26.16,24.26,50.69,49.6,52.6,10.08,.55,20.44,1.09,30.53,1.09s20.44-.27,30.53-1.09h0c25.35-1.91,48.51-26.44,49.6-52.6,2.18-52.06,2.18-104.93,.27-157.26Z"></path><path id="house" class="cls-3" d="M815.05,256.13C736.02,174.91,496.45,24.19,496.45,24.19c-48.24-32.43-110.38-32.16-158.62,.27,0,0-239.84,144.72-316.97,231.94-38.43,43.61-22.62,81.76,38.16,81.76h10.9v279.36c0,29.44,13.9,55.6,35.16,72.22h-.27c20.71,17.99,45.24,31.07,67.59,34.61,164.35,23.71,328.42,23.71,492.76,0,22.35-3.54,46.33-16.35,67.05-34.34h-.82c21.8-16.9,35.7-43.06,35.7-72.77V337.89h9.81c61.05,0,79.04-39.79,38.16-81.76Z"></path></g><path id="right_ear" data-name="right ear" class="cls-2" d="M538.15,276.84l77.95,26.16c3-131.09-77.95-26.16-77.95-26.16Zm61.87,13.08l-44.7-13.35c0-.27,46.61-54.51,44.7,13.35Z"></path><path id="left_ear" data-name="left ear" class="cls-2" d="M464.83,249.31c-36.52,19.9-12.54,71.68-12.54,71.68l70.04-41.7s-35.43-41.97-57.51-29.98Zm-1.09,55.87s-13.63-29.16,7.09-40.34c12.54-6.81,32.43,16.9,32.43,16.9l-39.52,23.44Z"></path><path id="anteater_face_eye" data-name="anteater face &amp;amp; eye" class="cls-2" d="M635.17,319.9c-13.35-42.24-59.42-46.33-59.42-46.33-94.03-17.99-128.64,45.52-128.64,45.52-13.35,20.71-30.8,49.06-47.42,125.37-20.71,94.3-36.79,174.43,2.73,184.79,42.52,10.9,190.24-183.15,190.24-183.15,46.61-71.68,49.33-104.11,42.52-126.19Zm-79.86,17.44c-.55,2.45-2.45,3.54-6.27,3.27h0c-.55,0-2.18-.55-3.82-.82-7.9-1.64-14.17,1.09-17.72,8.45-.82,1.91-2.18,3.27-3,5.18-1.09,2.18-3.27,3-5.45,2.18-2.18-1.09-3.54-2.73-2.73-5.45,3.27-13.08,14.99-21.53,28.07-19.9,2.73,.27,5.45,.55,8.18,1.91,1.91,.82,3.27,2.73,2.73,5.18Z"></path><path id="carrot" class="cls-1" d="M410.87,354.79c-.55,0-.82,.27-1.36,.27-27.25,3.54-68.14,5.18-87.21,27.53-6.81,7.9-18.26-3.54-11.45-11.45,21.53-25.35,63.78-28.07,95.12-31.89l-.55-1.91s-30.53-101.66-121.28-61.32c.27-11.72,1.64-25.07,3-36.79,2.73-26.98,5.45-29.98,19.9-39.25,5.45-3.27,3.54-12.81-2.73-14.72-4.63-1.36-5.72-.27-6.81-.27-1.09,.27-1.09-1.36-1.36-1.91-1.09-7.09-7.63-11.72-14.72-8.99-7.9,3-6.54,11.99-8.18,21.8-.55,2.73-2.73,4.63-5.45,4.36-3.82-.27-12.81-.55-16.9,.27-8.99,1.64-3,14.17,6,13.08,10.08-1.09,13.08,3.82,11.72,10.08l-5.72,34.07c-4.91-7.36-11.45-12.54-17.17-16.08-2.18-1.36-3.54-3.54-3.82-6-.27-3,0-6,.55-8.99,.27-1.36,.82-2.73,1.36-4.09,2.73-7.9-3.82-15.26-11.45-10.9-.55,.27-.82,.55-1.09,.82-.27,0-.55,.27-.55,.55-2.45,1.64-4.36,3.54-5.72,6.54-1.64,2.73-1.09,4.36-4.09,8.18-2.18,2.18-4.09-1.36-11.17-.55-7.9,1.09-11.17,11.45-3.54,13.08,2.73,.55,6.81,1.36,6.27,5.45-1.64,6.54-25.89,13.9-11.99,23.44,6.27,4.36,16.9-6,22.08-9.27,8.18-4.91,10.36-4.91,16.9,2.45,7.9,8.18,13.63,17.72,17.72,25.35-16.08,8.18-37.34,22.62-45.52,45.79,0,0-11.45,17.44,1.91,51.24,0,0,.27,.55,.55,1.64,13.63-16.63,29.98-30.53,46.88-44.15,8.18-6.54,19.9,4.91,11.45,11.45-19.08,15.26-38.16,31.07-52.06,51.24,6.81,17.17,19.35,43.06,40.88,69.77,7.9-8.18,17.44-14.99,26.71-22.08,15.81-11.99,31.89-23.17,48.79-33.8,8.99-5.72,17.17,8.45,8.18,14.17-13.9,8.72-27.53,17.99-40.88,27.8-10.9,7.9-23.71,16.35-32.98,26.71,20.17,26.16,76.86,96.21,110.93,118.01-6.54-23.17-1.91-60.78,6.54-105.48-2.45,.55-4.91,1.36-7.09,2.45-8.45,3.82-16.08,9.27-23.98,13.9-8.99,5.45-17.17-8.72-8.18-14.17,9.54-5.72,18.81-12.26,29.16-16.35,4.36-1.64,8.99-2.73,13.63-3.54,2.45-12.54,5.45-25.35,8.18-38.43,4.63-20.99,9.27-38.43,13.9-53.15l4.36-13.9-7.63-22.08Z"></path></svg> 